<mxfile host="app.diagrams.net" agent="Mozilla/5.0 (Windows NT 10.0; Win64; x64) AppleWebKit/537.36 (KHTML, like Gecko) Chrome/135.0.0.0 Safari/537.36" version="26.2.9" pages="4">
  <diagram id="C5RBs43oDa-KdzZeNtuy" name="Thêm môn học">
    <mxGraphModel dx="1113" dy="1637" grid="0" gridSize="10" guides="1" tooltips="1" connect="1" arrows="1" fold="1" page="1" pageScale="1" pageWidth="827" pageHeight="1169" math="0" shadow="0">
      <root>
        <mxCell id="WIyWlLk6GJQsqaUBKTNV-0" />
        <mxCell id="WIyWlLk6GJQsqaUBKTNV-1" parent="WIyWlLk6GJQsqaUBKTNV-0" />
        <mxCell id="jfYBGoZkxGjJ4Uw4VPkW-31" value="" style="shape=umlLifeline;perimeter=lifelinePerimeter;whiteSpace=wrap;html=1;container=1;dropTarget=0;collapsible=0;recursiveResize=0;outlineConnect=0;portConstraint=eastwest;newEdgeStyle={&quot;curved&quot;:0,&quot;rounded&quot;:0};participant=umlActor;" parent="WIyWlLk6GJQsqaUBKTNV-1" vertex="1">
          <mxGeometry x="20" y="-80" width="20" height="590" as="geometry" />
        </mxCell>
        <mxCell id="jfYBGoZkxGjJ4Uw4VPkW-32" value="" style="html=1;points=[[0,0,0,0,5],[0,1,0,0,-5],[1,0,0,0,5],[1,1,0,0,-5]];perimeter=orthogonalPerimeter;outlineConnect=0;targetShapes=umlLifeline;portConstraint=eastwest;newEdgeStyle={&quot;curved&quot;:0,&quot;rounded&quot;:0};" parent="jfYBGoZkxGjJ4Uw4VPkW-31" vertex="1">
          <mxGeometry x="5" y="70" width="10" height="510" as="geometry" />
        </mxCell>
        <mxCell id="jfYBGoZkxGjJ4Uw4VPkW-33" value="&lt;b&gt;Admin&lt;/b&gt;" style="text;strokeColor=none;fillColor=none;spacingLeft=4;spacingRight=4;overflow=hidden;rotatable=0;points=[[0,0.5],[1,0.5]];portConstraint=eastwest;fontSize=12;whiteSpace=wrap;html=1;" parent="WIyWlLk6GJQsqaUBKTNV-1" vertex="1">
          <mxGeometry x="5" y="-110" width="50" height="30" as="geometry" />
        </mxCell>
        <mxCell id="jfYBGoZkxGjJ4Uw4VPkW-34" value="" style="shape=umlLifeline;perimeter=lifelinePerimeter;whiteSpace=wrap;html=1;container=1;dropTarget=0;collapsible=0;recursiveResize=0;outlineConnect=0;portConstraint=eastwest;newEdgeStyle={&quot;curved&quot;:0,&quot;rounded&quot;:0};participant=umlBoundary;" parent="WIyWlLk6GJQsqaUBKTNV-1" vertex="1">
          <mxGeometry x="210" y="-80" width="50" height="590" as="geometry" />
        </mxCell>
        <mxCell id="jfYBGoZkxGjJ4Uw4VPkW-35" value="" style="html=1;points=[[0,0,0,0,5],[0,1,0,0,-5],[1,0,0,0,5],[1,1,0,0,-5]];perimeter=orthogonalPerimeter;outlineConnect=0;targetShapes=umlLifeline;portConstraint=eastwest;newEdgeStyle={&quot;curved&quot;:0,&quot;rounded&quot;:0};" parent="jfYBGoZkxGjJ4Uw4VPkW-34" vertex="1">
          <mxGeometry x="20" y="90" width="10" height="360" as="geometry" />
        </mxCell>
        <mxCell id="jfYBGoZkxGjJ4Uw4VPkW-63" value="" style="html=1;points=[[0,0,0,0,5],[0,1,0,0,-5],[1,0,0,0,5],[1,1,0,0,-5]];perimeter=orthogonalPerimeter;outlineConnect=0;targetShapes=umlLifeline;portConstraint=eastwest;newEdgeStyle={&quot;curved&quot;:0,&quot;rounded&quot;:0};" parent="jfYBGoZkxGjJ4Uw4VPkW-34" vertex="1">
          <mxGeometry x="20" y="495" width="10" height="55" as="geometry" />
        </mxCell>
        <mxCell id="jfYBGoZkxGjJ4Uw4VPkW-36" value="&lt;b&gt;Admin Dashboard&lt;/b&gt;" style="text;strokeColor=none;fillColor=none;spacingLeft=4;spacingRight=4;overflow=hidden;rotatable=0;points=[[0,0.5],[1,0.5]];portConstraint=eastwest;fontSize=12;whiteSpace=wrap;html=1;" parent="WIyWlLk6GJQsqaUBKTNV-1" vertex="1">
          <mxGeometry x="175" y="-110" width="120" height="30" as="geometry" />
        </mxCell>
        <mxCell id="jfYBGoZkxGjJ4Uw4VPkW-37" value="" style="shape=umlLifeline;perimeter=lifelinePerimeter;whiteSpace=wrap;html=1;container=1;dropTarget=0;collapsible=0;recursiveResize=0;outlineConnect=0;portConstraint=eastwest;newEdgeStyle={&quot;curved&quot;:0,&quot;rounded&quot;:0};participant=umlControl;" parent="WIyWlLk6GJQsqaUBKTNV-1" vertex="1">
          <mxGeometry x="430" y="-80" width="40" height="590" as="geometry" />
        </mxCell>
        <mxCell id="jfYBGoZkxGjJ4Uw4VPkW-38" value="&lt;b&gt;SubjectController&lt;/b&gt;" style="text;strokeColor=none;fillColor=none;spacingLeft=4;spacingRight=4;overflow=hidden;rotatable=0;points=[[0,0.5],[1,0.5]];portConstraint=eastwest;fontSize=12;whiteSpace=wrap;html=1;" parent="WIyWlLk6GJQsqaUBKTNV-1" vertex="1">
          <mxGeometry x="397.81" y="-110" width="104.38" height="30" as="geometry" />
        </mxCell>
        <mxCell id="jfYBGoZkxGjJ4Uw4VPkW-39" value="" style="shape=umlLifeline;perimeter=lifelinePerimeter;whiteSpace=wrap;html=1;container=1;dropTarget=0;collapsible=0;recursiveResize=0;outlineConnect=0;portConstraint=eastwest;newEdgeStyle={&quot;curved&quot;:0,&quot;rounded&quot;:0};participant=umlEntity;" parent="WIyWlLk6GJQsqaUBKTNV-1" vertex="1">
          <mxGeometry x="600" y="-80" width="40" height="590" as="geometry" />
        </mxCell>
        <mxCell id="jfYBGoZkxGjJ4Uw4VPkW-40" value="&lt;b&gt;Subject&lt;/b&gt;" style="text;strokeColor=none;fillColor=none;spacingLeft=4;spacingRight=4;overflow=hidden;rotatable=0;points=[[0,0.5],[1,0.5]];portConstraint=eastwest;fontSize=12;whiteSpace=wrap;html=1;" parent="WIyWlLk6GJQsqaUBKTNV-1" vertex="1">
          <mxGeometry x="592.06" y="-110" width="60.94" height="30" as="geometry" />
        </mxCell>
        <mxCell id="jfYBGoZkxGjJ4Uw4VPkW-41" value="click Add Subject button()" style="html=1;verticalAlign=bottom;endArrow=block;curved=0;rounded=0;fontSize=12;startSize=8;endSize=8;" parent="WIyWlLk6GJQsqaUBKTNV-1" edge="1">
          <mxGeometry x="-0.0286" width="80" relative="1" as="geometry">
            <mxPoint x="36" y="10" as="sourcePoint" />
            <mxPoint x="231" y="10" as="targetPoint" />
            <mxPoint x="1" as="offset" />
          </mxGeometry>
        </mxCell>
        <mxCell id="jfYBGoZkxGjJ4Uw4VPkW-42" value="showSubjectList()" style="html=1;verticalAlign=bottom;endArrow=block;curved=0;rounded=0;fontSize=12;startSize=8;endSize=8;" parent="WIyWlLk6GJQsqaUBKTNV-1" edge="1">
          <mxGeometry x="-0.0067" width="80" relative="1" as="geometry">
            <mxPoint x="229.5" y="48" as="sourcePoint" />
            <mxPoint x="34.5" y="48" as="targetPoint" />
            <mxPoint as="offset" />
            <Array as="points">
              <mxPoint x="119.5" y="48" />
            </Array>
          </mxGeometry>
        </mxCell>
        <mxCell id="jfYBGoZkxGjJ4Uw4VPkW-43" value="click Submit button()" style="html=1;verticalAlign=bottom;endArrow=block;curved=0;rounded=0;fontSize=12;startSize=8;endSize=8;" parent="WIyWlLk6GJQsqaUBKTNV-1" edge="1">
          <mxGeometry width="80" relative="1" as="geometry">
            <mxPoint x="35" y="203" as="sourcePoint" />
            <mxPoint x="230" y="203" as="targetPoint" />
          </mxGeometry>
        </mxCell>
        <mxCell id="jfYBGoZkxGjJ4Uw4VPkW-44" value="submitDetails()" style="html=1;verticalAlign=bottom;endArrow=block;curved=0;rounded=0;fontSize=12;startSize=8;endSize=8;" parent="WIyWlLk6GJQsqaUBKTNV-1" edge="1">
          <mxGeometry x="0.05" width="80" relative="1" as="geometry">
            <mxPoint x="240" y="219" as="sourcePoint" />
            <mxPoint x="445" y="219" as="targetPoint" />
            <Array as="points">
              <mxPoint x="425" y="219" />
            </Array>
            <mxPoint as="offset" />
          </mxGeometry>
        </mxCell>
        <mxCell id="jfYBGoZkxGjJ4Uw4VPkW-45" value="saveSubject()" style="html=1;verticalAlign=bottom;endArrow=block;curved=0;rounded=0;fontSize=12;startSize=8;endSize=8;" parent="WIyWlLk6GJQsqaUBKTNV-1" edge="1">
          <mxGeometry width="80" relative="1" as="geometry">
            <mxPoint x="455" y="292" as="sourcePoint" />
            <mxPoint x="615" y="292" as="targetPoint" />
            <mxPoint as="offset" />
          </mxGeometry>
        </mxCell>
        <mxCell id="jfYBGoZkxGjJ4Uw4VPkW-46" value="alt" style="shape=umlFrame;whiteSpace=wrap;html=1;pointerEvents=0;" parent="WIyWlLk6GJQsqaUBKTNV-1" vertex="1">
          <mxGeometry x="-49.06" y="150" width="719.06" height="330" as="geometry" />
        </mxCell>
        <mxCell id="jfYBGoZkxGjJ4Uw4VPkW-47" value="return save status" style="html=1;verticalAlign=bottom;endArrow=open;dashed=1;endSize=8;curved=0;rounded=0;fontSize=12;" parent="WIyWlLk6GJQsqaUBKTNV-1" edge="1">
          <mxGeometry relative="1" as="geometry">
            <mxPoint x="615" y="331" as="sourcePoint" />
            <mxPoint x="455" y="331" as="targetPoint" />
          </mxGeometry>
        </mxCell>
        <mxCell id="jfYBGoZkxGjJ4Uw4VPkW-48" value="&lt;b&gt;sd&lt;/b&gt;&amp;nbsp;add subject" style="shape=umlFrame;whiteSpace=wrap;html=1;pointerEvents=0;width=110;height=30;" parent="WIyWlLk6GJQsqaUBKTNV-1" vertex="1">
          <mxGeometry x="-60" y="-140" width="750" height="660" as="geometry" />
        </mxCell>
        <mxCell id="jfYBGoZkxGjJ4Uw4VPkW-49" value="&lt;b&gt;[Valid data]&lt;/b&gt;" style="text;strokeColor=none;fillColor=none;spacingLeft=4;spacingRight=4;overflow=hidden;rotatable=0;points=[[0,0.5],[1,0.5]];portConstraint=eastwest;fontSize=12;whiteSpace=wrap;html=1;" parent="WIyWlLk6GJQsqaUBKTNV-1" vertex="1">
          <mxGeometry x="50" y="155" width="180" height="30" as="geometry" />
        </mxCell>
        <mxCell id="jfYBGoZkxGjJ4Uw4VPkW-50" value="" style="html=1;points=[[0,0,0,0,5],[0,1,0,0,-5],[1,0,0,0,5],[1,1,0,0,-5]];perimeter=orthogonalPerimeter;outlineConnect=0;targetShapes=umlLifeline;portConstraint=eastwest;newEdgeStyle={&quot;curved&quot;:0,&quot;rounded&quot;:0};" parent="WIyWlLk6GJQsqaUBKTNV-1" vertex="1">
          <mxGeometry x="445" y="190" width="10" height="160" as="geometry" />
        </mxCell>
        <mxCell id="jfYBGoZkxGjJ4Uw4VPkW-51" value="showInputFields()" style="html=1;verticalAlign=bottom;endArrow=block;curved=0;rounded=0;fontSize=12;startSize=8;endSize=8;" parent="WIyWlLk6GJQsqaUBKTNV-1" edge="1">
          <mxGeometry x="-0.0067" width="80" relative="1" as="geometry">
            <mxPoint x="229.5" y="87" as="sourcePoint" />
            <mxPoint x="34.5" y="87" as="targetPoint" />
            <mxPoint as="offset" />
          </mxGeometry>
        </mxCell>
        <mxCell id="jfYBGoZkxGjJ4Uw4VPkW-52" value="inputDetails()" style="html=1;verticalAlign=bottom;endArrow=block;curved=0;rounded=0;fontSize=12;startSize=8;endSize=8;" parent="WIyWlLk6GJQsqaUBKTNV-1" edge="1">
          <mxGeometry x="-0.0067" width="80" relative="1" as="geometry">
            <mxPoint x="34.5" y="123" as="sourcePoint" />
            <mxPoint x="229.5" y="123" as="targetPoint" />
            <mxPoint as="offset" />
          </mxGeometry>
        </mxCell>
        <mxCell id="jfYBGoZkxGjJ4Uw4VPkW-53" value="" style="html=1;points=[[0,0,0,0,5],[0,1,0,0,-5],[1,0,0,0,5],[1,1,0,0,-5]];perimeter=orthogonalPerimeter;outlineConnect=0;targetShapes=umlLifeline;portConstraint=eastwest;newEdgeStyle={&quot;curved&quot;:0,&quot;rounded&quot;:0};" parent="WIyWlLk6GJQsqaUBKTNV-1" vertex="1">
          <mxGeometry x="615" y="292" width="10" height="40" as="geometry" />
        </mxCell>
        <mxCell id="jfYBGoZkxGjJ4Uw4VPkW-54" value="validateInput()" style="html=1;align=left;spacingLeft=2;endArrow=block;rounded=0;edgeStyle=orthogonalEdgeStyle;curved=0;rounded=0;fontSize=12;startSize=8;endSize=8;" parent="WIyWlLk6GJQsqaUBKTNV-1" edge="1">
          <mxGeometry x="-0.875" y="10" relative="1" as="geometry">
            <mxPoint x="456" y="237.00000000000023" as="sourcePoint" />
            <Array as="points">
              <mxPoint x="491" y="237" />
              <mxPoint x="491" y="247" />
            </Array>
            <mxPoint x="456" y="247.00000000000023" as="targetPoint" />
            <mxPoint as="offset" />
          </mxGeometry>
        </mxCell>
        <mxCell id="jfYBGoZkxGjJ4Uw4VPkW-55" value="showNotification()" style="html=1;verticalAlign=bottom;endArrow=block;curved=0;rounded=0;fontSize=12;startSize=8;endSize=8;exitX=0;exitY=0;exitDx=0;exitDy=5;exitPerimeter=0;" parent="WIyWlLk6GJQsqaUBKTNV-1" edge="1">
          <mxGeometry x="-0.0067" width="80" relative="1" as="geometry">
            <mxPoint x="445" y="350" as="sourcePoint" />
            <mxPoint x="240" y="350" as="targetPoint" />
            <mxPoint as="offset" />
          </mxGeometry>
        </mxCell>
        <mxCell id="jfYBGoZkxGjJ4Uw4VPkW-56" value="&lt;b&gt;[Invalid data]&lt;/b&gt;" style="text;strokeColor=none;fillColor=none;spacingLeft=4;spacingRight=4;overflow=hidden;rotatable=0;points=[[0,0.5],[1,0.5]];portConstraint=eastwest;fontSize=12;whiteSpace=wrap;html=1;" parent="WIyWlLk6GJQsqaUBKTNV-1" vertex="1">
          <mxGeometry x="40" y="379" width="180" height="30" as="geometry" />
        </mxCell>
        <mxCell id="jfYBGoZkxGjJ4Uw4VPkW-58" value="" style="endArrow=none;dashed=1;html=1;rounded=0;fontSize=12;startSize=8;endSize=8;curved=1;" parent="WIyWlLk6GJQsqaUBKTNV-1" edge="1">
          <mxGeometry width="50" height="50" relative="1" as="geometry">
            <mxPoint x="-48" y="381" as="sourcePoint" />
            <mxPoint x="670" y="381" as="targetPoint" />
            <Array as="points" />
          </mxGeometry>
        </mxCell>
        <mxCell id="jfYBGoZkxGjJ4Uw4VPkW-59" value="showError()" style="html=1;verticalAlign=bottom;endArrow=block;curved=0;rounded=0;fontSize=12;startSize=8;endSize=8;exitX=0.5;exitY=0.946;exitDx=0;exitDy=0;exitPerimeter=0;" parent="WIyWlLk6GJQsqaUBKTNV-1" edge="1">
          <mxGeometry x="-0.0067" width="80" relative="1" as="geometry">
            <mxPoint x="450" y="415" as="sourcePoint" />
            <mxPoint x="240" y="415.24" as="targetPoint" />
            <mxPoint as="offset" />
          </mxGeometry>
        </mxCell>
        <mxCell id="jfYBGoZkxGjJ4Uw4VPkW-60" value="highlightInvalidFields()" style="html=1;verticalAlign=bottom;endArrow=open;dashed=1;endSize=8;curved=0;rounded=0;fontSize=12;" parent="WIyWlLk6GJQsqaUBKTNV-1" edge="1">
          <mxGeometry relative="1" as="geometry">
            <mxPoint x="230" y="470" as="sourcePoint" />
            <mxPoint x="35" y="470" as="targetPoint" />
          </mxGeometry>
        </mxCell>
        <mxCell id="jfYBGoZkxGjJ4Uw4VPkW-61" value="requestReEntry()" style="html=1;verticalAlign=bottom;endArrow=block;curved=0;rounded=0;fontSize=12;startSize=8;endSize=8;" parent="WIyWlLk6GJQsqaUBKTNV-1" edge="1">
          <mxGeometry x="-0.0067" width="80" relative="1" as="geometry">
            <mxPoint x="230.5" y="439" as="sourcePoint" />
            <mxPoint x="35.5" y="439" as="targetPoint" />
            <mxPoint as="offset" />
          </mxGeometry>
        </mxCell>
        <mxCell id="jfYBGoZkxGjJ4Uw4VPkW-62" value="notify success outcome" style="html=1;verticalAlign=bottom;endArrow=open;dashed=1;endSize=8;curved=0;rounded=0;fontSize=12;" parent="WIyWlLk6GJQsqaUBKTNV-1" edge="1">
          <mxGeometry relative="1" as="geometry">
            <mxPoint x="229" y="370" as="sourcePoint" />
            <mxPoint x="34" y="370" as="targetPoint" />
          </mxGeometry>
        </mxCell>
      </root>
    </mxGraphModel>
  </diagram>
  <diagram name="Chỉnh sửa môn học" id="UO5bG-sAz53AwLmSUDOf">
    <mxGraphModel dx="1512" dy="2359" grid="0" gridSize="10" guides="1" tooltips="1" connect="1" arrows="1" fold="1" page="1" pageScale="1" pageWidth="827" pageHeight="1169" math="0" shadow="0">
      <root>
        <mxCell id="ugq8LRYXuCdMQxfLcuCS-0" />
        <mxCell id="ugq8LRYXuCdMQxfLcuCS-1" parent="ugq8LRYXuCdMQxfLcuCS-0" />
        <mxCell id="ugq8LRYXuCdMQxfLcuCS-2" value="" style="shape=umlLifeline;perimeter=lifelinePerimeter;whiteSpace=wrap;html=1;container=1;dropTarget=0;collapsible=0;recursiveResize=0;outlineConnect=0;portConstraint=eastwest;newEdgeStyle={&quot;curved&quot;:0,&quot;rounded&quot;:0};participant=umlActor;" vertex="1" parent="ugq8LRYXuCdMQxfLcuCS-1">
          <mxGeometry x="20" y="-80" width="20" height="717" as="geometry" />
        </mxCell>
        <mxCell id="ugq8LRYXuCdMQxfLcuCS-3" value="" style="html=1;points=[[0,0,0,0,5],[0,1,0,0,-5],[1,0,0,0,5],[1,1,0,0,-5]];perimeter=orthogonalPerimeter;outlineConnect=0;targetShapes=umlLifeline;portConstraint=eastwest;newEdgeStyle={&quot;curved&quot;:0,&quot;rounded&quot;:0};" vertex="1" parent="ugq8LRYXuCdMQxfLcuCS-2">
          <mxGeometry x="5" y="70" width="10" height="624" as="geometry" />
        </mxCell>
        <mxCell id="ugq8LRYXuCdMQxfLcuCS-4" value="&lt;b&gt;Admin&lt;/b&gt;" style="text;strokeColor=none;fillColor=none;spacingLeft=4;spacingRight=4;overflow=hidden;rotatable=0;points=[[0,0.5],[1,0.5]];portConstraint=eastwest;fontSize=12;whiteSpace=wrap;html=1;" vertex="1" parent="ugq8LRYXuCdMQxfLcuCS-1">
          <mxGeometry x="5" y="-110" width="50" height="30" as="geometry" />
        </mxCell>
        <mxCell id="ugq8LRYXuCdMQxfLcuCS-5" value="" style="shape=umlLifeline;perimeter=lifelinePerimeter;whiteSpace=wrap;html=1;container=1;dropTarget=0;collapsible=0;recursiveResize=0;outlineConnect=0;portConstraint=eastwest;newEdgeStyle={&quot;curved&quot;:0,&quot;rounded&quot;:0};participant=umlBoundary;" vertex="1" parent="ugq8LRYXuCdMQxfLcuCS-1">
          <mxGeometry x="210" y="-80" width="50" height="715" as="geometry" />
        </mxCell>
        <mxCell id="ugq8LRYXuCdMQxfLcuCS-6" value="" style="html=1;points=[[0,0,0,0,5],[0,1,0,0,-5],[1,0,0,0,5],[1,1,0,0,-5]];perimeter=orthogonalPerimeter;outlineConnect=0;targetShapes=umlLifeline;portConstraint=eastwest;newEdgeStyle={&quot;curved&quot;:0,&quot;rounded&quot;:0};" vertex="1" parent="ugq8LRYXuCdMQxfLcuCS-5">
          <mxGeometry x="20" y="90" width="10" height="424" as="geometry" />
        </mxCell>
        <mxCell id="ugq8LRYXuCdMQxfLcuCS-7" value="" style="html=1;points=[[0,0,0,0,5],[0,1,0,0,-5],[1,0,0,0,5],[1,1,0,0,-5]];perimeter=orthogonalPerimeter;outlineConnect=0;targetShapes=umlLifeline;portConstraint=eastwest;newEdgeStyle={&quot;curved&quot;:0,&quot;rounded&quot;:0};" vertex="1" parent="ugq8LRYXuCdMQxfLcuCS-5">
          <mxGeometry x="20" y="566" width="10" height="55" as="geometry" />
        </mxCell>
        <mxCell id="ugq8LRYXuCdMQxfLcuCS-8" value="&lt;b&gt;Admin Dashboard&lt;/b&gt;" style="text;strokeColor=none;fillColor=none;spacingLeft=4;spacingRight=4;overflow=hidden;rotatable=0;points=[[0,0.5],[1,0.5]];portConstraint=eastwest;fontSize=12;whiteSpace=wrap;html=1;" vertex="1" parent="ugq8LRYXuCdMQxfLcuCS-1">
          <mxGeometry x="175" y="-110" width="120" height="30" as="geometry" />
        </mxCell>
        <mxCell id="ugq8LRYXuCdMQxfLcuCS-9" value="" style="shape=umlLifeline;perimeter=lifelinePerimeter;whiteSpace=wrap;html=1;container=1;dropTarget=0;collapsible=0;recursiveResize=0;outlineConnect=0;portConstraint=eastwest;newEdgeStyle={&quot;curved&quot;:0,&quot;rounded&quot;:0};participant=umlControl;" vertex="1" parent="ugq8LRYXuCdMQxfLcuCS-1">
          <mxGeometry x="430" y="-80" width="40" height="708" as="geometry" />
        </mxCell>
        <mxCell id="ugq8LRYXuCdMQxfLcuCS-10" value="&lt;b&gt;SubjectController&lt;/b&gt;" style="text;strokeColor=none;fillColor=none;spacingLeft=4;spacingRight=4;overflow=hidden;rotatable=0;points=[[0,0.5],[1,0.5]];portConstraint=eastwest;fontSize=12;whiteSpace=wrap;html=1;" vertex="1" parent="ugq8LRYXuCdMQxfLcuCS-1">
          <mxGeometry x="397.81" y="-110" width="104.38" height="30" as="geometry" />
        </mxCell>
        <mxCell id="ugq8LRYXuCdMQxfLcuCS-11" value="" style="shape=umlLifeline;perimeter=lifelinePerimeter;whiteSpace=wrap;html=1;container=1;dropTarget=0;collapsible=0;recursiveResize=0;outlineConnect=0;portConstraint=eastwest;newEdgeStyle={&quot;curved&quot;:0,&quot;rounded&quot;:0};participant=umlEntity;" vertex="1" parent="ugq8LRYXuCdMQxfLcuCS-1">
          <mxGeometry x="600" y="-80" width="40" height="720" as="geometry" />
        </mxCell>
        <mxCell id="ugq8LRYXuCdMQxfLcuCS-12" value="&lt;b&gt;Subject&lt;/b&gt;" style="text;strokeColor=none;fillColor=none;spacingLeft=4;spacingRight=4;overflow=hidden;rotatable=0;points=[[0,0.5],[1,0.5]];portConstraint=eastwest;fontSize=12;whiteSpace=wrap;html=1;" vertex="1" parent="ugq8LRYXuCdMQxfLcuCS-1">
          <mxGeometry x="592.06" y="-110" width="60.94" height="30" as="geometry" />
        </mxCell>
        <mxCell id="ugq8LRYXuCdMQxfLcuCS-13" value="click Edit Subject button()" style="html=1;verticalAlign=bottom;endArrow=block;curved=0;rounded=0;fontSize=12;startSize=8;endSize=8;" edge="1" parent="ugq8LRYXuCdMQxfLcuCS-1">
          <mxGeometry x="-0.0286" width="80" relative="1" as="geometry">
            <mxPoint x="36" y="10" as="sourcePoint" />
            <mxPoint x="231" y="10" as="targetPoint" />
            <mxPoint x="1" as="offset" />
          </mxGeometry>
        </mxCell>
        <mxCell id="ugq8LRYXuCdMQxfLcuCS-15" value="editSubjectInfo()" style="html=1;verticalAlign=bottom;endArrow=block;curved=0;rounded=0;fontSize=12;startSize=8;endSize=8;" edge="1" parent="ugq8LRYXuCdMQxfLcuCS-1">
          <mxGeometry width="80" relative="1" as="geometry">
            <mxPoint x="35" y="183" as="sourcePoint" />
            <mxPoint x="230" y="183" as="targetPoint" />
          </mxGeometry>
        </mxCell>
        <mxCell id="ugq8LRYXuCdMQxfLcuCS-16" value="submitEditedDetails(subjectId, editedData)" style="html=1;verticalAlign=bottom;endArrow=block;curved=0;rounded=0;fontSize=12;startSize=8;endSize=8;" edge="1" parent="ugq8LRYXuCdMQxfLcuCS-1">
          <mxGeometry x="0.1805" y="2" width="80" relative="1" as="geometry">
            <mxPoint x="240" y="233" as="sourcePoint" />
            <mxPoint x="444.9999999999998" y="233" as="targetPoint" />
            <Array as="points">
              <mxPoint x="332" y="233" />
            </Array>
            <mxPoint as="offset" />
          </mxGeometry>
        </mxCell>
        <mxCell id="ugq8LRYXuCdMQxfLcuCS-17" value="updateSubject(subjectId, editedData)" style="html=1;verticalAlign=bottom;endArrow=block;curved=0;rounded=0;fontSize=12;startSize=8;endSize=8;" edge="1" parent="ugq8LRYXuCdMQxfLcuCS-1" target="ugq8LRYXuCdMQxfLcuCS-25">
          <mxGeometry x="0.275" y="6" width="80" relative="1" as="geometry">
            <mxPoint x="455" y="341" as="sourcePoint" />
            <mxPoint x="615" y="341" as="targetPoint" />
            <mxPoint as="offset" />
          </mxGeometry>
        </mxCell>
        <mxCell id="ugq8LRYXuCdMQxfLcuCS-18" value="alt" style="shape=umlFrame;whiteSpace=wrap;html=1;pointerEvents=0;" vertex="1" parent="ugq8LRYXuCdMQxfLcuCS-1">
          <mxGeometry x="-49.06" y="309" width="719.06" height="257" as="geometry" />
        </mxCell>
        <mxCell id="ugq8LRYXuCdMQxfLcuCS-19" value="return update status" style="html=1;verticalAlign=bottom;endArrow=open;dashed=1;endSize=8;curved=0;rounded=0;fontSize=12;" edge="1" parent="ugq8LRYXuCdMQxfLcuCS-1">
          <mxGeometry relative="1" as="geometry">
            <mxPoint x="617" y="382" as="sourcePoint" />
            <mxPoint x="455" y="382" as="targetPoint" />
          </mxGeometry>
        </mxCell>
        <mxCell id="ugq8LRYXuCdMQxfLcuCS-20" value="&lt;b&gt;sd&lt;/b&gt;&amp;nbsp;add subject" style="shape=umlFrame;whiteSpace=wrap;html=1;pointerEvents=0;width=110;height=30;" vertex="1" parent="ugq8LRYXuCdMQxfLcuCS-1">
          <mxGeometry x="-60" y="-140" width="750" height="723" as="geometry" />
        </mxCell>
        <mxCell id="ugq8LRYXuCdMQxfLcuCS-21" value="&lt;b&gt;[Valid data]&lt;/b&gt;" style="text;strokeColor=none;fillColor=none;spacingLeft=4;spacingRight=4;overflow=hidden;rotatable=0;points=[[0,0.5],[1,0.5]];portConstraint=eastwest;fontSize=12;whiteSpace=wrap;html=1;" vertex="1" parent="ugq8LRYXuCdMQxfLcuCS-1">
          <mxGeometry x="36" y="309" width="180" height="30" as="geometry" />
        </mxCell>
        <mxCell id="ugq8LRYXuCdMQxfLcuCS-22" value="" style="html=1;points=[[0,0,0,0,5],[0,1,0,0,-5],[1,0,0,0,5],[1,1,0,0,-5]];perimeter=orthogonalPerimeter;outlineConnect=0;targetShapes=umlLifeline;portConstraint=eastwest;newEdgeStyle={&quot;curved&quot;:0,&quot;rounded&quot;:0};" vertex="1" parent="ugq8LRYXuCdMQxfLcuCS-1">
          <mxGeometry x="445" y="232" width="10" height="178" as="geometry" />
        </mxCell>
        <mxCell id="ugq8LRYXuCdMQxfLcuCS-23" value="displayEditableFields(subjectData)" style="html=1;verticalAlign=bottom;endArrow=block;curved=0;rounded=0;fontSize=12;startSize=8;endSize=8;" edge="1" parent="ugq8LRYXuCdMQxfLcuCS-1">
          <mxGeometry y="-3" width="80" relative="1" as="geometry">
            <mxPoint x="229.5" y="140" as="sourcePoint" />
            <mxPoint x="34.5" y="140" as="targetPoint" />
            <mxPoint as="offset" />
          </mxGeometry>
        </mxCell>
        <mxCell id="ugq8LRYXuCdMQxfLcuCS-25" value="" style="html=1;points=[[0,0,0,0,5],[0,1,0,0,-5],[1,0,0,0,5],[1,1,0,0,-5]];perimeter=orthogonalPerimeter;outlineConnect=0;targetShapes=umlLifeline;portConstraint=eastwest;newEdgeStyle={&quot;curved&quot;:0,&quot;rounded&quot;:0};" vertex="1" parent="ugq8LRYXuCdMQxfLcuCS-1">
          <mxGeometry x="615" y="341" width="10" height="41" as="geometry" />
        </mxCell>
        <mxCell id="ugq8LRYXuCdMQxfLcuCS-26" value="validateSubjectSelection()" style="html=1;align=left;spacingLeft=2;endArrow=block;rounded=0;edgeStyle=orthogonalEdgeStyle;curved=0;rounded=0;fontSize=12;startSize=8;endSize=8;" edge="1" parent="ugq8LRYXuCdMQxfLcuCS-1">
          <mxGeometry x="-0.875" y="10" relative="1" as="geometry">
            <mxPoint x="456" y="251.00000000000023" as="sourcePoint" />
            <Array as="points">
              <mxPoint x="491" y="251" />
              <mxPoint x="491" y="261" />
            </Array>
            <mxPoint x="456" y="261.0000000000002" as="targetPoint" />
            <mxPoint as="offset" />
          </mxGeometry>
        </mxCell>
        <mxCell id="ugq8LRYXuCdMQxfLcuCS-27" value="showNotification()" style="html=1;verticalAlign=bottom;endArrow=block;curved=0;rounded=0;fontSize=12;startSize=8;endSize=8;exitX=0;exitY=0;exitDx=0;exitDy=5;exitPerimeter=0;" edge="1" parent="ugq8LRYXuCdMQxfLcuCS-1">
          <mxGeometry x="-0.0067" width="80" relative="1" as="geometry">
            <mxPoint x="445" y="410" as="sourcePoint" />
            <mxPoint x="240" y="410" as="targetPoint" />
            <mxPoint as="offset" />
          </mxGeometry>
        </mxCell>
        <mxCell id="ugq8LRYXuCdMQxfLcuCS-28" value="&lt;b&gt;[Invalid data]&lt;/b&gt;" style="text;strokeColor=none;fillColor=none;spacingLeft=4;spacingRight=4;overflow=hidden;rotatable=0;points=[[0,0.5],[1,0.5]];portConstraint=eastwest;fontSize=12;whiteSpace=wrap;html=1;" vertex="1" parent="ugq8LRYXuCdMQxfLcuCS-1">
          <mxGeometry x="40" y="379" width="180" height="30" as="geometry" />
        </mxCell>
        <mxCell id="ugq8LRYXuCdMQxfLcuCS-29" value="" style="endArrow=none;dashed=1;html=1;rounded=0;fontSize=12;startSize=8;endSize=8;curved=1;" edge="1" parent="ugq8LRYXuCdMQxfLcuCS-1">
          <mxGeometry width="50" height="50" relative="1" as="geometry">
            <mxPoint x="-47" y="461" as="sourcePoint" />
            <mxPoint x="671" y="461" as="targetPoint" />
            <Array as="points" />
          </mxGeometry>
        </mxCell>
        <mxCell id="ugq8LRYXuCdMQxfLcuCS-30" value="showError()" style="html=1;verticalAlign=bottom;endArrow=block;curved=0;rounded=0;fontSize=12;startSize=8;endSize=8;exitX=0.5;exitY=0.946;exitDx=0;exitDy=0;exitPerimeter=0;" edge="1" parent="ugq8LRYXuCdMQxfLcuCS-1">
          <mxGeometry x="-0.0067" width="80" relative="1" as="geometry">
            <mxPoint x="450" y="486" as="sourcePoint" />
            <mxPoint x="240" y="486.24" as="targetPoint" />
            <mxPoint as="offset" />
          </mxGeometry>
        </mxCell>
        <mxCell id="ugq8LRYXuCdMQxfLcuCS-31" value="highlightInvalidFields()" style="html=1;verticalAlign=bottom;endArrow=open;dashed=1;endSize=8;curved=0;rounded=0;fontSize=12;" edge="1" parent="ugq8LRYXuCdMQxfLcuCS-1">
          <mxGeometry relative="1" as="geometry">
            <mxPoint x="230" y="541" as="sourcePoint" />
            <mxPoint x="35" y="541" as="targetPoint" />
          </mxGeometry>
        </mxCell>
        <mxCell id="ugq8LRYXuCdMQxfLcuCS-32" value="requestReEntry()" style="html=1;verticalAlign=bottom;endArrow=block;curved=0;rounded=0;fontSize=12;startSize=8;endSize=8;" edge="1" parent="ugq8LRYXuCdMQxfLcuCS-1">
          <mxGeometry x="-0.0067" width="80" relative="1" as="geometry">
            <mxPoint x="230.5" y="510" as="sourcePoint" />
            <mxPoint x="35.5" y="510" as="targetPoint" />
            <mxPoint as="offset" />
          </mxGeometry>
        </mxCell>
        <mxCell id="ugq8LRYXuCdMQxfLcuCS-33" value="notify success outcome" style="html=1;verticalAlign=bottom;endArrow=open;dashed=1;endSize=8;curved=0;rounded=0;fontSize=12;" edge="1" parent="ugq8LRYXuCdMQxfLcuCS-1">
          <mxGeometry relative="1" as="geometry">
            <mxPoint x="231" y="434" as="sourcePoint" />
            <mxPoint x="36" y="434" as="targetPoint" />
          </mxGeometry>
        </mxCell>
        <mxCell id="gCMDwl5an3ijmKQT-tBM-1" value="" style="html=1;points=[[0,0,0,0,5],[0,1,0,0,-5],[1,0,0,0,5],[1,1,0,0,-5]];perimeter=orthogonalPerimeter;outlineConnect=0;targetShapes=umlLifeline;portConstraint=eastwest;newEdgeStyle={&quot;curved&quot;:0,&quot;rounded&quot;:0};" vertex="1" parent="ugq8LRYXuCdMQxfLcuCS-1">
          <mxGeometry x="445" y="29" width="10" height="88" as="geometry" />
        </mxCell>
        <mxCell id="gCMDwl5an3ijmKQT-tBM-2" value="requestSubjectDetails(subjectId)" style="html=1;verticalAlign=bottom;endArrow=block;curved=0;rounded=0;fontSize=12;startSize=8;endSize=8;" edge="1" parent="ugq8LRYXuCdMQxfLcuCS-1" target="gCMDwl5an3ijmKQT-tBM-1">
          <mxGeometry x="-0.0286" width="80" relative="1" as="geometry">
            <mxPoint x="241" y="29" as="sourcePoint" />
            <mxPoint x="436" y="29" as="targetPoint" />
            <mxPoint x="1" as="offset" />
          </mxGeometry>
        </mxCell>
        <mxCell id="gCMDwl5an3ijmKQT-tBM-3" value="click Edit Subject button()" style="html=1;verticalAlign=bottom;endArrow=block;curved=0;rounded=0;fontSize=12;startSize=8;endSize=8;" edge="1" parent="ugq8LRYXuCdMQxfLcuCS-1" target="gCMDwl5an3ijmKQT-tBM-4">
          <mxGeometry x="-0.0286" width="80" relative="1" as="geometry">
            <mxPoint x="455" y="50.79" as="sourcePoint" />
            <mxPoint x="611" y="51" as="targetPoint" />
            <mxPoint x="1" as="offset" />
          </mxGeometry>
        </mxCell>
        <mxCell id="gCMDwl5an3ijmKQT-tBM-4" value="" style="html=1;points=[[0,0,0,0,5],[0,1,0,0,-5],[1,0,0,0,5],[1,1,0,0,-5]];perimeter=orthogonalPerimeter;outlineConnect=0;targetShapes=umlLifeline;portConstraint=eastwest;newEdgeStyle={&quot;curved&quot;:0,&quot;rounded&quot;:0};" vertex="1" parent="ugq8LRYXuCdMQxfLcuCS-1">
          <mxGeometry x="615" y="51" width="10" height="40" as="geometry" />
        </mxCell>
        <mxCell id="gCMDwl5an3ijmKQT-tBM-5" value="return subject data" style="html=1;verticalAlign=bottom;endArrow=open;dashed=1;endSize=8;curved=0;rounded=0;fontSize=12;" edge="1" parent="ugq8LRYXuCdMQxfLcuCS-1">
          <mxGeometry relative="1" as="geometry">
            <mxPoint x="615" y="91.00000000000003" as="sourcePoint" />
            <mxPoint x="455" y="91.00000000000003" as="targetPoint" />
          </mxGeometry>
        </mxCell>
        <mxCell id="gCMDwl5an3ijmKQT-tBM-6" value="sendSubjectData()" style="html=1;verticalAlign=bottom;endArrow=open;dashed=1;endSize=8;curved=0;rounded=0;fontSize=12;" edge="1" parent="ugq8LRYXuCdMQxfLcuCS-1" target="ugq8LRYXuCdMQxfLcuCS-6">
          <mxGeometry relative="1" as="geometry">
            <mxPoint x="442" y="117.00000000000003" as="sourcePoint" />
            <mxPoint x="282" y="117.00000000000003" as="targetPoint" />
          </mxGeometry>
        </mxCell>
        <mxCell id="gCMDwl5an3ijmKQT-tBM-7" value="click Save Changes button()" style="html=1;verticalAlign=bottom;endArrow=block;curved=0;rounded=0;fontSize=12;startSize=8;endSize=8;" edge="1" parent="ugq8LRYXuCdMQxfLcuCS-1">
          <mxGeometry width="80" relative="1" as="geometry">
            <mxPoint x="36" y="210" as="sourcePoint" />
            <mxPoint x="231" y="210" as="targetPoint" />
          </mxGeometry>
        </mxCell>
        <mxCell id="gCMDwl5an3ijmKQT-tBM-8" value="validateEditedData()" style="html=1;align=left;spacingLeft=2;endArrow=block;rounded=0;edgeStyle=orthogonalEdgeStyle;curved=0;rounded=0;fontSize=12;startSize=8;endSize=8;" edge="1" parent="ugq8LRYXuCdMQxfLcuCS-1">
          <mxGeometry x="-0.875" y="10" relative="1" as="geometry">
            <mxPoint x="455" y="285.9600000000002" as="sourcePoint" />
            <Array as="points">
              <mxPoint x="490" y="285.96" />
              <mxPoint x="490" y="295.96" />
            </Array>
            <mxPoint x="455" y="295.9600000000002" as="targetPoint" />
            <mxPoint as="offset" />
          </mxGeometry>
        </mxCell>
      </root>
    </mxGraphModel>
  </diagram>
  <diagram name="Thêm Loại Sách" id="Wq2afblhSfd-kK-rX8Cu">
    <mxGraphModel dx="1236" dy="1838" grid="0" gridSize="10" guides="1" tooltips="1" connect="1" arrows="1" fold="1" page="1" pageScale="1" pageWidth="827" pageHeight="1169" math="0" shadow="0">
      <root>
        <mxCell id="A8spPQ0pkjBzuyTdy9sc-0" />
        <mxCell id="A8spPQ0pkjBzuyTdy9sc-1" parent="A8spPQ0pkjBzuyTdy9sc-0" />
        <mxCell id="A8spPQ0pkjBzuyTdy9sc-2" value="" style="shape=umlLifeline;perimeter=lifelinePerimeter;whiteSpace=wrap;html=1;container=1;dropTarget=0;collapsible=0;recursiveResize=0;outlineConnect=0;portConstraint=eastwest;newEdgeStyle={&quot;curved&quot;:0,&quot;rounded&quot;:0};participant=umlActor;" parent="A8spPQ0pkjBzuyTdy9sc-1" vertex="1">
          <mxGeometry x="20" y="-80" width="20" height="590" as="geometry" />
        </mxCell>
        <mxCell id="A8spPQ0pkjBzuyTdy9sc-3" value="" style="html=1;points=[[0,0,0,0,5],[0,1,0,0,-5],[1,0,0,0,5],[1,1,0,0,-5]];perimeter=orthogonalPerimeter;outlineConnect=0;targetShapes=umlLifeline;portConstraint=eastwest;newEdgeStyle={&quot;curved&quot;:0,&quot;rounded&quot;:0};" parent="A8spPQ0pkjBzuyTdy9sc-2" vertex="1">
          <mxGeometry x="5" y="70" width="10" height="510" as="geometry" />
        </mxCell>
        <mxCell id="A8spPQ0pkjBzuyTdy9sc-4" value="&lt;b&gt;Admin&lt;/b&gt;" style="text;strokeColor=none;fillColor=none;spacingLeft=4;spacingRight=4;overflow=hidden;rotatable=0;points=[[0,0.5],[1,0.5]];portConstraint=eastwest;fontSize=12;whiteSpace=wrap;html=1;" parent="A8spPQ0pkjBzuyTdy9sc-1" vertex="1">
          <mxGeometry x="5" y="-110" width="50" height="30" as="geometry" />
        </mxCell>
        <mxCell id="A8spPQ0pkjBzuyTdy9sc-5" value="" style="shape=umlLifeline;perimeter=lifelinePerimeter;whiteSpace=wrap;html=1;container=1;dropTarget=0;collapsible=0;recursiveResize=0;outlineConnect=0;portConstraint=eastwest;newEdgeStyle={&quot;curved&quot;:0,&quot;rounded&quot;:0};participant=umlBoundary;" parent="A8spPQ0pkjBzuyTdy9sc-1" vertex="1">
          <mxGeometry x="210" y="-80" width="50" height="590" as="geometry" />
        </mxCell>
        <mxCell id="A8spPQ0pkjBzuyTdy9sc-6" value="" style="html=1;points=[[0,0,0,0,5],[0,1,0,0,-5],[1,0,0,0,5],[1,1,0,0,-5]];perimeter=orthogonalPerimeter;outlineConnect=0;targetShapes=umlLifeline;portConstraint=eastwest;newEdgeStyle={&quot;curved&quot;:0,&quot;rounded&quot;:0};" parent="A8spPQ0pkjBzuyTdy9sc-5" vertex="1">
          <mxGeometry x="20" y="90" width="10" height="360" as="geometry" />
        </mxCell>
        <mxCell id="A8spPQ0pkjBzuyTdy9sc-7" value="" style="html=1;points=[[0,0,0,0,5],[0,1,0,0,-5],[1,0,0,0,5],[1,1,0,0,-5]];perimeter=orthogonalPerimeter;outlineConnect=0;targetShapes=umlLifeline;portConstraint=eastwest;newEdgeStyle={&quot;curved&quot;:0,&quot;rounded&quot;:0};" parent="A8spPQ0pkjBzuyTdy9sc-5" vertex="1">
          <mxGeometry x="20" y="495" width="10" height="55" as="geometry" />
        </mxCell>
        <mxCell id="A8spPQ0pkjBzuyTdy9sc-8" value="&lt;b&gt;Admin Dashboard&lt;/b&gt;" style="text;strokeColor=none;fillColor=none;spacingLeft=4;spacingRight=4;overflow=hidden;rotatable=0;points=[[0,0.5],[1,0.5]];portConstraint=eastwest;fontSize=12;whiteSpace=wrap;html=1;" parent="A8spPQ0pkjBzuyTdy9sc-1" vertex="1">
          <mxGeometry x="175" y="-110" width="120" height="30" as="geometry" />
        </mxCell>
        <mxCell id="A8spPQ0pkjBzuyTdy9sc-9" value="" style="shape=umlLifeline;perimeter=lifelinePerimeter;whiteSpace=wrap;html=1;container=1;dropTarget=0;collapsible=0;recursiveResize=0;outlineConnect=0;portConstraint=eastwest;newEdgeStyle={&quot;curved&quot;:0,&quot;rounded&quot;:0};participant=umlControl;" parent="A8spPQ0pkjBzuyTdy9sc-1" vertex="1">
          <mxGeometry x="430" y="-80" width="40" height="590" as="geometry" />
        </mxCell>
        <mxCell id="A8spPQ0pkjBzuyTdy9sc-10" value="&lt;b&gt;BookTypeController&lt;/b&gt;" style="text;strokeColor=none;fillColor=none;spacingLeft=4;spacingRight=4;overflow=hidden;rotatable=0;points=[[0,0.5],[1,0.5]];portConstraint=eastwest;fontSize=12;whiteSpace=wrap;html=1;" parent="A8spPQ0pkjBzuyTdy9sc-1" vertex="1">
          <mxGeometry x="397.81" y="-110" width="104.38" height="30" as="geometry" />
        </mxCell>
        <mxCell id="A8spPQ0pkjBzuyTdy9sc-11" value="" style="shape=umlLifeline;perimeter=lifelinePerimeter;whiteSpace=wrap;html=1;container=1;dropTarget=0;collapsible=0;recursiveResize=0;outlineConnect=0;portConstraint=eastwest;newEdgeStyle={&quot;curved&quot;:0,&quot;rounded&quot;:0};participant=umlEntity;" parent="A8spPQ0pkjBzuyTdy9sc-1" vertex="1">
          <mxGeometry x="600" y="-80" width="40" height="590" as="geometry" />
        </mxCell>
        <mxCell id="A8spPQ0pkjBzuyTdy9sc-12" value="&lt;b&gt;BookType&lt;/b&gt;" style="text;strokeColor=none;fillColor=none;spacingLeft=4;spacingRight=4;overflow=hidden;rotatable=0;points=[[0,0.5],[1,0.5]];portConstraint=eastwest;fontSize=12;whiteSpace=wrap;html=1;" parent="A8spPQ0pkjBzuyTdy9sc-1" vertex="1">
          <mxGeometry x="581" y="-110" width="86" height="30" as="geometry" />
        </mxCell>
        <mxCell id="A8spPQ0pkjBzuyTdy9sc-13" value="click Add Book Type button()" style="html=1;verticalAlign=bottom;endArrow=block;curved=0;rounded=0;fontSize=12;startSize=8;endSize=8;" parent="A8spPQ0pkjBzuyTdy9sc-1" edge="1">
          <mxGeometry x="-0.0286" width="80" relative="1" as="geometry">
            <mxPoint x="36" y="10" as="sourcePoint" />
            <mxPoint x="231" y="10" as="targetPoint" />
            <mxPoint x="1" as="offset" />
          </mxGeometry>
        </mxCell>
        <mxCell id="A8spPQ0pkjBzuyTdy9sc-14" value="showBookTypeList()" style="html=1;verticalAlign=bottom;endArrow=block;curved=0;rounded=0;fontSize=12;startSize=8;endSize=8;" parent="A8spPQ0pkjBzuyTdy9sc-1" edge="1">
          <mxGeometry x="-0.0067" width="80" relative="1" as="geometry">
            <mxPoint x="229.5" y="48" as="sourcePoint" />
            <mxPoint x="34.5" y="48" as="targetPoint" />
            <mxPoint as="offset" />
            <Array as="points">
              <mxPoint x="119.5" y="48" />
            </Array>
          </mxGeometry>
        </mxCell>
        <mxCell id="A8spPQ0pkjBzuyTdy9sc-15" value="click Submit button()" style="html=1;verticalAlign=bottom;endArrow=block;curved=0;rounded=0;fontSize=12;startSize=8;endSize=8;" parent="A8spPQ0pkjBzuyTdy9sc-1" edge="1">
          <mxGeometry width="80" relative="1" as="geometry">
            <mxPoint x="35" y="203" as="sourcePoint" />
            <mxPoint x="230" y="203" as="targetPoint" />
          </mxGeometry>
        </mxCell>
        <mxCell id="A8spPQ0pkjBzuyTdy9sc-16" value="submitDetails()" style="html=1;verticalAlign=bottom;endArrow=block;curved=0;rounded=0;fontSize=12;startSize=8;endSize=8;" parent="A8spPQ0pkjBzuyTdy9sc-1" edge="1">
          <mxGeometry x="0.05" width="80" relative="1" as="geometry">
            <mxPoint x="240" y="219" as="sourcePoint" />
            <mxPoint x="445" y="219" as="targetPoint" />
            <Array as="points">
              <mxPoint x="425" y="219" />
            </Array>
            <mxPoint as="offset" />
          </mxGeometry>
        </mxCell>
        <mxCell id="A8spPQ0pkjBzuyTdy9sc-17" value="saveBookType()" style="html=1;verticalAlign=bottom;endArrow=block;curved=0;rounded=0;fontSize=12;startSize=8;endSize=8;" parent="A8spPQ0pkjBzuyTdy9sc-1" edge="1">
          <mxGeometry width="80" relative="1" as="geometry">
            <mxPoint x="455" y="292" as="sourcePoint" />
            <mxPoint x="615" y="292" as="targetPoint" />
            <mxPoint as="offset" />
          </mxGeometry>
        </mxCell>
        <mxCell id="A8spPQ0pkjBzuyTdy9sc-18" value="alt" style="shape=umlFrame;whiteSpace=wrap;html=1;pointerEvents=0;" parent="A8spPQ0pkjBzuyTdy9sc-1" vertex="1">
          <mxGeometry x="-49.06" y="150" width="719.06" height="330" as="geometry" />
        </mxCell>
        <mxCell id="A8spPQ0pkjBzuyTdy9sc-19" value="return save status" style="html=1;verticalAlign=bottom;endArrow=open;dashed=1;endSize=8;curved=0;rounded=0;fontSize=12;" parent="A8spPQ0pkjBzuyTdy9sc-1" edge="1">
          <mxGeometry relative="1" as="geometry">
            <mxPoint x="615" y="331" as="sourcePoint" />
            <mxPoint x="455" y="331" as="targetPoint" />
          </mxGeometry>
        </mxCell>
        <mxCell id="A8spPQ0pkjBzuyTdy9sc-20" value="&lt;b&gt;sd&lt;/b&gt;&amp;nbsp;add book type" style="shape=umlFrame;whiteSpace=wrap;html=1;pointerEvents=0;width=110;height=30;" parent="A8spPQ0pkjBzuyTdy9sc-1" vertex="1">
          <mxGeometry x="-60" y="-140" width="750" height="660" as="geometry" />
        </mxCell>
        <mxCell id="A8spPQ0pkjBzuyTdy9sc-21" value="&lt;b&gt;[Valid data]&lt;/b&gt;" style="text;strokeColor=none;fillColor=none;spacingLeft=4;spacingRight=4;overflow=hidden;rotatable=0;points=[[0,0.5],[1,0.5]];portConstraint=eastwest;fontSize=12;whiteSpace=wrap;html=1;" parent="A8spPQ0pkjBzuyTdy9sc-1" vertex="1">
          <mxGeometry x="50" y="155" width="180" height="30" as="geometry" />
        </mxCell>
        <mxCell id="A8spPQ0pkjBzuyTdy9sc-22" value="" style="html=1;points=[[0,0,0,0,5],[0,1,0,0,-5],[1,0,0,0,5],[1,1,0,0,-5]];perimeter=orthogonalPerimeter;outlineConnect=0;targetShapes=umlLifeline;portConstraint=eastwest;newEdgeStyle={&quot;curved&quot;:0,&quot;rounded&quot;:0};" parent="A8spPQ0pkjBzuyTdy9sc-1" vertex="1">
          <mxGeometry x="445" y="190" width="10" height="160" as="geometry" />
        </mxCell>
        <mxCell id="A8spPQ0pkjBzuyTdy9sc-23" value="showInputFields()" style="html=1;verticalAlign=bottom;endArrow=block;curved=0;rounded=0;fontSize=12;startSize=8;endSize=8;" parent="A8spPQ0pkjBzuyTdy9sc-1" edge="1">
          <mxGeometry x="-0.0067" width="80" relative="1" as="geometry">
            <mxPoint x="229.5" y="87" as="sourcePoint" />
            <mxPoint x="34.5" y="87" as="targetPoint" />
            <mxPoint as="offset" />
          </mxGeometry>
        </mxCell>
        <mxCell id="A8spPQ0pkjBzuyTdy9sc-24" value="inputDetails()" style="html=1;verticalAlign=bottom;endArrow=block;curved=0;rounded=0;fontSize=12;startSize=8;endSize=8;" parent="A8spPQ0pkjBzuyTdy9sc-1" edge="1">
          <mxGeometry x="-0.0067" width="80" relative="1" as="geometry">
            <mxPoint x="34.5" y="123" as="sourcePoint" />
            <mxPoint x="229.5" y="123" as="targetPoint" />
            <mxPoint as="offset" />
          </mxGeometry>
        </mxCell>
        <mxCell id="A8spPQ0pkjBzuyTdy9sc-25" value="" style="html=1;points=[[0,0,0,0,5],[0,1,0,0,-5],[1,0,0,0,5],[1,1,0,0,-5]];perimeter=orthogonalPerimeter;outlineConnect=0;targetShapes=umlLifeline;portConstraint=eastwest;newEdgeStyle={&quot;curved&quot;:0,&quot;rounded&quot;:0};" parent="A8spPQ0pkjBzuyTdy9sc-1" vertex="1">
          <mxGeometry x="615" y="292" width="10" height="40" as="geometry" />
        </mxCell>
        <mxCell id="A8spPQ0pkjBzuyTdy9sc-26" value="validateInput()" style="html=1;align=left;spacingLeft=2;endArrow=block;rounded=0;edgeStyle=orthogonalEdgeStyle;curved=0;rounded=0;fontSize=12;startSize=8;endSize=8;" parent="A8spPQ0pkjBzuyTdy9sc-1" edge="1">
          <mxGeometry x="-0.875" y="10" relative="1" as="geometry">
            <mxPoint x="456" y="237.00000000000023" as="sourcePoint" />
            <Array as="points">
              <mxPoint x="491" y="237" />
              <mxPoint x="491" y="247" />
            </Array>
            <mxPoint x="456" y="247.00000000000023" as="targetPoint" />
            <mxPoint as="offset" />
          </mxGeometry>
        </mxCell>
        <mxCell id="A8spPQ0pkjBzuyTdy9sc-27" value="showNotification()" style="html=1;verticalAlign=bottom;endArrow=block;curved=0;rounded=0;fontSize=12;startSize=8;endSize=8;exitX=0;exitY=0;exitDx=0;exitDy=5;exitPerimeter=0;" parent="A8spPQ0pkjBzuyTdy9sc-1" edge="1">
          <mxGeometry x="-0.0067" width="80" relative="1" as="geometry">
            <mxPoint x="445" y="350" as="sourcePoint" />
            <mxPoint x="240" y="350" as="targetPoint" />
            <mxPoint as="offset" />
          </mxGeometry>
        </mxCell>
        <mxCell id="A8spPQ0pkjBzuyTdy9sc-28" value="&lt;b&gt;[Invalid data]&lt;/b&gt;" style="text;strokeColor=none;fillColor=none;spacingLeft=4;spacingRight=4;overflow=hidden;rotatable=0;points=[[0,0.5],[1,0.5]];portConstraint=eastwest;fontSize=12;whiteSpace=wrap;html=1;" parent="A8spPQ0pkjBzuyTdy9sc-1" vertex="1">
          <mxGeometry x="40" y="379" width="180" height="30" as="geometry" />
        </mxCell>
        <mxCell id="A8spPQ0pkjBzuyTdy9sc-29" value="" style="endArrow=none;dashed=1;html=1;rounded=0;fontSize=12;startSize=8;endSize=8;curved=1;" parent="A8spPQ0pkjBzuyTdy9sc-1" edge="1">
          <mxGeometry width="50" height="50" relative="1" as="geometry">
            <mxPoint x="-48" y="381" as="sourcePoint" />
            <mxPoint x="670" y="381" as="targetPoint" />
            <Array as="points" />
          </mxGeometry>
        </mxCell>
        <mxCell id="A8spPQ0pkjBzuyTdy9sc-30" value="showError()" style="html=1;verticalAlign=bottom;endArrow=block;curved=0;rounded=0;fontSize=12;startSize=8;endSize=8;exitX=0.5;exitY=0.946;exitDx=0;exitDy=0;exitPerimeter=0;" parent="A8spPQ0pkjBzuyTdy9sc-1" edge="1">
          <mxGeometry x="-0.0067" width="80" relative="1" as="geometry">
            <mxPoint x="450" y="415" as="sourcePoint" />
            <mxPoint x="240" y="415.24" as="targetPoint" />
            <mxPoint as="offset" />
          </mxGeometry>
        </mxCell>
        <mxCell id="A8spPQ0pkjBzuyTdy9sc-31" value="highlightInvalidFields()" style="html=1;verticalAlign=bottom;endArrow=open;dashed=1;endSize=8;curved=0;rounded=0;fontSize=12;" parent="A8spPQ0pkjBzuyTdy9sc-1" edge="1">
          <mxGeometry relative="1" as="geometry">
            <mxPoint x="230" y="470" as="sourcePoint" />
            <mxPoint x="35" y="470" as="targetPoint" />
          </mxGeometry>
        </mxCell>
        <mxCell id="A8spPQ0pkjBzuyTdy9sc-32" value="requestReEntry()" style="html=1;verticalAlign=bottom;endArrow=block;curved=0;rounded=0;fontSize=12;startSize=8;endSize=8;" parent="A8spPQ0pkjBzuyTdy9sc-1" edge="1">
          <mxGeometry x="-0.0067" width="80" relative="1" as="geometry">
            <mxPoint x="230.5" y="439" as="sourcePoint" />
            <mxPoint x="35.5" y="439" as="targetPoint" />
            <mxPoint as="offset" />
          </mxGeometry>
        </mxCell>
        <mxCell id="A8spPQ0pkjBzuyTdy9sc-33" value="notify success outcome" style="html=1;verticalAlign=bottom;endArrow=open;dashed=1;endSize=8;curved=0;rounded=0;fontSize=12;" parent="A8spPQ0pkjBzuyTdy9sc-1" edge="1">
          <mxGeometry relative="1" as="geometry">
            <mxPoint x="229" y="370" as="sourcePoint" />
            <mxPoint x="34" y="370" as="targetPoint" />
          </mxGeometry>
        </mxCell>
      </root>
    </mxGraphModel>
  </diagram>
  <diagram name="Bản sao của Thêm Loại Sách" id="brywrmHgUsfYVfo0Scdh">
    <mxGraphModel dx="1131" dy="1698" grid="0" gridSize="10" guides="1" tooltips="1" connect="1" arrows="1" fold="1" page="1" pageScale="1" pageWidth="827" pageHeight="1169" math="0" shadow="0">
      <root>
        <mxCell id="zKYWoEEWCpVcTfYXWsxU-0" />
        <mxCell id="zKYWoEEWCpVcTfYXWsxU-1" parent="zKYWoEEWCpVcTfYXWsxU-0" />
        <mxCell id="zKYWoEEWCpVcTfYXWsxU-2" value="" style="shape=umlLifeline;perimeter=lifelinePerimeter;whiteSpace=wrap;html=1;container=1;dropTarget=0;collapsible=0;recursiveResize=0;outlineConnect=0;portConstraint=eastwest;newEdgeStyle={&quot;curved&quot;:0,&quot;rounded&quot;:0};participant=umlActor;" vertex="1" parent="zKYWoEEWCpVcTfYXWsxU-1">
          <mxGeometry x="20" y="-80" width="20" height="590" as="geometry" />
        </mxCell>
        <mxCell id="zKYWoEEWCpVcTfYXWsxU-3" value="" style="html=1;points=[[0,0,0,0,5],[0,1,0,0,-5],[1,0,0,0,5],[1,1,0,0,-5]];perimeter=orthogonalPerimeter;outlineConnect=0;targetShapes=umlLifeline;portConstraint=eastwest;newEdgeStyle={&quot;curved&quot;:0,&quot;rounded&quot;:0};" vertex="1" parent="zKYWoEEWCpVcTfYXWsxU-2">
          <mxGeometry x="5" y="70" width="10" height="510" as="geometry" />
        </mxCell>
        <mxCell id="zKYWoEEWCpVcTfYXWsxU-4" value="&lt;b&gt;Admin&lt;/b&gt;" style="text;strokeColor=none;fillColor=none;spacingLeft=4;spacingRight=4;overflow=hidden;rotatable=0;points=[[0,0.5],[1,0.5]];portConstraint=eastwest;fontSize=12;whiteSpace=wrap;html=1;" vertex="1" parent="zKYWoEEWCpVcTfYXWsxU-1">
          <mxGeometry x="5" y="-110" width="50" height="30" as="geometry" />
        </mxCell>
        <mxCell id="zKYWoEEWCpVcTfYXWsxU-5" value="" style="shape=umlLifeline;perimeter=lifelinePerimeter;whiteSpace=wrap;html=1;container=1;dropTarget=0;collapsible=0;recursiveResize=0;outlineConnect=0;portConstraint=eastwest;newEdgeStyle={&quot;curved&quot;:0,&quot;rounded&quot;:0};participant=umlBoundary;" vertex="1" parent="zKYWoEEWCpVcTfYXWsxU-1">
          <mxGeometry x="210" y="-80" width="50" height="590" as="geometry" />
        </mxCell>
        <mxCell id="zKYWoEEWCpVcTfYXWsxU-6" value="" style="html=1;points=[[0,0,0,0,5],[0,1,0,0,-5],[1,0,0,0,5],[1,1,0,0,-5]];perimeter=orthogonalPerimeter;outlineConnect=0;targetShapes=umlLifeline;portConstraint=eastwest;newEdgeStyle={&quot;curved&quot;:0,&quot;rounded&quot;:0};" vertex="1" parent="zKYWoEEWCpVcTfYXWsxU-5">
          <mxGeometry x="20" y="90" width="10" height="360" as="geometry" />
        </mxCell>
        <mxCell id="zKYWoEEWCpVcTfYXWsxU-7" value="" style="html=1;points=[[0,0,0,0,5],[0,1,0,0,-5],[1,0,0,0,5],[1,1,0,0,-5]];perimeter=orthogonalPerimeter;outlineConnect=0;targetShapes=umlLifeline;portConstraint=eastwest;newEdgeStyle={&quot;curved&quot;:0,&quot;rounded&quot;:0};" vertex="1" parent="zKYWoEEWCpVcTfYXWsxU-5">
          <mxGeometry x="20" y="495" width="10" height="55" as="geometry" />
        </mxCell>
        <mxCell id="zKYWoEEWCpVcTfYXWsxU-8" value="&lt;b&gt;Admin Dashboard&lt;/b&gt;" style="text;strokeColor=none;fillColor=none;spacingLeft=4;spacingRight=4;overflow=hidden;rotatable=0;points=[[0,0.5],[1,0.5]];portConstraint=eastwest;fontSize=12;whiteSpace=wrap;html=1;" vertex="1" parent="zKYWoEEWCpVcTfYXWsxU-1">
          <mxGeometry x="175" y="-110" width="120" height="30" as="geometry" />
        </mxCell>
        <mxCell id="zKYWoEEWCpVcTfYXWsxU-9" value="" style="shape=umlLifeline;perimeter=lifelinePerimeter;whiteSpace=wrap;html=1;container=1;dropTarget=0;collapsible=0;recursiveResize=0;outlineConnect=0;portConstraint=eastwest;newEdgeStyle={&quot;curved&quot;:0,&quot;rounded&quot;:0};participant=umlControl;" vertex="1" parent="zKYWoEEWCpVcTfYXWsxU-1">
          <mxGeometry x="430" y="-80" width="40" height="590" as="geometry" />
        </mxCell>
        <mxCell id="zKYWoEEWCpVcTfYXWsxU-10" value="&lt;b&gt;BookTypeController&lt;/b&gt;" style="text;strokeColor=none;fillColor=none;spacingLeft=4;spacingRight=4;overflow=hidden;rotatable=0;points=[[0,0.5],[1,0.5]];portConstraint=eastwest;fontSize=12;whiteSpace=wrap;html=1;" vertex="1" parent="zKYWoEEWCpVcTfYXWsxU-1">
          <mxGeometry x="397.81" y="-110" width="104.38" height="30" as="geometry" />
        </mxCell>
        <mxCell id="zKYWoEEWCpVcTfYXWsxU-11" value="" style="shape=umlLifeline;perimeter=lifelinePerimeter;whiteSpace=wrap;html=1;container=1;dropTarget=0;collapsible=0;recursiveResize=0;outlineConnect=0;portConstraint=eastwest;newEdgeStyle={&quot;curved&quot;:0,&quot;rounded&quot;:0};participant=umlEntity;" vertex="1" parent="zKYWoEEWCpVcTfYXWsxU-1">
          <mxGeometry x="600" y="-80" width="40" height="590" as="geometry" />
        </mxCell>
        <mxCell id="zKYWoEEWCpVcTfYXWsxU-12" value="&lt;b&gt;BookType&lt;/b&gt;" style="text;strokeColor=none;fillColor=none;spacingLeft=4;spacingRight=4;overflow=hidden;rotatable=0;points=[[0,0.5],[1,0.5]];portConstraint=eastwest;fontSize=12;whiteSpace=wrap;html=1;" vertex="1" parent="zKYWoEEWCpVcTfYXWsxU-1">
          <mxGeometry x="581" y="-110" width="86" height="30" as="geometry" />
        </mxCell>
        <mxCell id="zKYWoEEWCpVcTfYXWsxU-13" value="click Add Book Type button()" style="html=1;verticalAlign=bottom;endArrow=block;curved=0;rounded=0;fontSize=12;startSize=8;endSize=8;" edge="1" parent="zKYWoEEWCpVcTfYXWsxU-1">
          <mxGeometry x="-0.0286" width="80" relative="1" as="geometry">
            <mxPoint x="36" y="10" as="sourcePoint" />
            <mxPoint x="231" y="10" as="targetPoint" />
            <mxPoint x="1" as="offset" />
          </mxGeometry>
        </mxCell>
        <mxCell id="zKYWoEEWCpVcTfYXWsxU-14" value="showBookTypeList()" style="html=1;verticalAlign=bottom;endArrow=block;curved=0;rounded=0;fontSize=12;startSize=8;endSize=8;" edge="1" parent="zKYWoEEWCpVcTfYXWsxU-1">
          <mxGeometry x="-0.0067" width="80" relative="1" as="geometry">
            <mxPoint x="229.5" y="48" as="sourcePoint" />
            <mxPoint x="34.5" y="48" as="targetPoint" />
            <mxPoint as="offset" />
            <Array as="points">
              <mxPoint x="119.5" y="48" />
            </Array>
          </mxGeometry>
        </mxCell>
        <mxCell id="zKYWoEEWCpVcTfYXWsxU-15" value="click Submit button()" style="html=1;verticalAlign=bottom;endArrow=block;curved=0;rounded=0;fontSize=12;startSize=8;endSize=8;" edge="1" parent="zKYWoEEWCpVcTfYXWsxU-1">
          <mxGeometry width="80" relative="1" as="geometry">
            <mxPoint x="35" y="203" as="sourcePoint" />
            <mxPoint x="230" y="203" as="targetPoint" />
          </mxGeometry>
        </mxCell>
        <mxCell id="zKYWoEEWCpVcTfYXWsxU-16" value="submitDetails()" style="html=1;verticalAlign=bottom;endArrow=block;curved=0;rounded=0;fontSize=12;startSize=8;endSize=8;" edge="1" parent="zKYWoEEWCpVcTfYXWsxU-1">
          <mxGeometry x="0.05" width="80" relative="1" as="geometry">
            <mxPoint x="240" y="219" as="sourcePoint" />
            <mxPoint x="445" y="219" as="targetPoint" />
            <Array as="points">
              <mxPoint x="425" y="219" />
            </Array>
            <mxPoint as="offset" />
          </mxGeometry>
        </mxCell>
        <mxCell id="zKYWoEEWCpVcTfYXWsxU-17" value="saveBookType()" style="html=1;verticalAlign=bottom;endArrow=block;curved=0;rounded=0;fontSize=12;startSize=8;endSize=8;" edge="1" parent="zKYWoEEWCpVcTfYXWsxU-1">
          <mxGeometry width="80" relative="1" as="geometry">
            <mxPoint x="455" y="292" as="sourcePoint" />
            <mxPoint x="615" y="292" as="targetPoint" />
            <mxPoint as="offset" />
          </mxGeometry>
        </mxCell>
        <mxCell id="zKYWoEEWCpVcTfYXWsxU-18" value="alt" style="shape=umlFrame;whiteSpace=wrap;html=1;pointerEvents=0;" vertex="1" parent="zKYWoEEWCpVcTfYXWsxU-1">
          <mxGeometry x="-49.06" y="150" width="719.06" height="330" as="geometry" />
        </mxCell>
        <mxCell id="zKYWoEEWCpVcTfYXWsxU-19" value="return save status" style="html=1;verticalAlign=bottom;endArrow=open;dashed=1;endSize=8;curved=0;rounded=0;fontSize=12;" edge="1" parent="zKYWoEEWCpVcTfYXWsxU-1">
          <mxGeometry relative="1" as="geometry">
            <mxPoint x="615" y="331" as="sourcePoint" />
            <mxPoint x="455" y="331" as="targetPoint" />
          </mxGeometry>
        </mxCell>
        <mxCell id="zKYWoEEWCpVcTfYXWsxU-20" value="&lt;b&gt;sd&lt;/b&gt;&amp;nbsp;add book type" style="shape=umlFrame;whiteSpace=wrap;html=1;pointerEvents=0;width=110;height=30;" vertex="1" parent="zKYWoEEWCpVcTfYXWsxU-1">
          <mxGeometry x="-60" y="-140" width="750" height="660" as="geometry" />
        </mxCell>
        <mxCell id="zKYWoEEWCpVcTfYXWsxU-21" value="&lt;b&gt;[Valid data]&lt;/b&gt;" style="text;strokeColor=none;fillColor=none;spacingLeft=4;spacingRight=4;overflow=hidden;rotatable=0;points=[[0,0.5],[1,0.5]];portConstraint=eastwest;fontSize=12;whiteSpace=wrap;html=1;" vertex="1" parent="zKYWoEEWCpVcTfYXWsxU-1">
          <mxGeometry x="50" y="155" width="180" height="30" as="geometry" />
        </mxCell>
        <mxCell id="zKYWoEEWCpVcTfYXWsxU-22" value="" style="html=1;points=[[0,0,0,0,5],[0,1,0,0,-5],[1,0,0,0,5],[1,1,0,0,-5]];perimeter=orthogonalPerimeter;outlineConnect=0;targetShapes=umlLifeline;portConstraint=eastwest;newEdgeStyle={&quot;curved&quot;:0,&quot;rounded&quot;:0};" vertex="1" parent="zKYWoEEWCpVcTfYXWsxU-1">
          <mxGeometry x="445" y="190" width="10" height="160" as="geometry" />
        </mxCell>
        <mxCell id="zKYWoEEWCpVcTfYXWsxU-23" value="showInputFields()" style="html=1;verticalAlign=bottom;endArrow=block;curved=0;rounded=0;fontSize=12;startSize=8;endSize=8;" edge="1" parent="zKYWoEEWCpVcTfYXWsxU-1">
          <mxGeometry x="-0.0067" width="80" relative="1" as="geometry">
            <mxPoint x="229.5" y="87" as="sourcePoint" />
            <mxPoint x="34.5" y="87" as="targetPoint" />
            <mxPoint as="offset" />
          </mxGeometry>
        </mxCell>
        <mxCell id="zKYWoEEWCpVcTfYXWsxU-24" value="inputDetails()" style="html=1;verticalAlign=bottom;endArrow=block;curved=0;rounded=0;fontSize=12;startSize=8;endSize=8;" edge="1" parent="zKYWoEEWCpVcTfYXWsxU-1">
          <mxGeometry x="-0.0067" width="80" relative="1" as="geometry">
            <mxPoint x="34.5" y="123" as="sourcePoint" />
            <mxPoint x="229.5" y="123" as="targetPoint" />
            <mxPoint as="offset" />
          </mxGeometry>
        </mxCell>
        <mxCell id="zKYWoEEWCpVcTfYXWsxU-25" value="" style="html=1;points=[[0,0,0,0,5],[0,1,0,0,-5],[1,0,0,0,5],[1,1,0,0,-5]];perimeter=orthogonalPerimeter;outlineConnect=0;targetShapes=umlLifeline;portConstraint=eastwest;newEdgeStyle={&quot;curved&quot;:0,&quot;rounded&quot;:0};" vertex="1" parent="zKYWoEEWCpVcTfYXWsxU-1">
          <mxGeometry x="615" y="292" width="10" height="40" as="geometry" />
        </mxCell>
        <mxCell id="zKYWoEEWCpVcTfYXWsxU-26" value="validateInput()" style="html=1;align=left;spacingLeft=2;endArrow=block;rounded=0;edgeStyle=orthogonalEdgeStyle;curved=0;rounded=0;fontSize=12;startSize=8;endSize=8;" edge="1" parent="zKYWoEEWCpVcTfYXWsxU-1">
          <mxGeometry x="-0.875" y="10" relative="1" as="geometry">
            <mxPoint x="456" y="237.00000000000023" as="sourcePoint" />
            <Array as="points">
              <mxPoint x="491" y="237" />
              <mxPoint x="491" y="247" />
            </Array>
            <mxPoint x="456" y="247.00000000000023" as="targetPoint" />
            <mxPoint as="offset" />
          </mxGeometry>
        </mxCell>
        <mxCell id="zKYWoEEWCpVcTfYXWsxU-27" value="showNotification()" style="html=1;verticalAlign=bottom;endArrow=block;curved=0;rounded=0;fontSize=12;startSize=8;endSize=8;exitX=0;exitY=0;exitDx=0;exitDy=5;exitPerimeter=0;" edge="1" parent="zKYWoEEWCpVcTfYXWsxU-1">
          <mxGeometry x="-0.0067" width="80" relative="1" as="geometry">
            <mxPoint x="445" y="350" as="sourcePoint" />
            <mxPoint x="240" y="350" as="targetPoint" />
            <mxPoint as="offset" />
          </mxGeometry>
        </mxCell>
        <mxCell id="zKYWoEEWCpVcTfYXWsxU-28" value="&lt;b&gt;[Invalid data]&lt;/b&gt;" style="text;strokeColor=none;fillColor=none;spacingLeft=4;spacingRight=4;overflow=hidden;rotatable=0;points=[[0,0.5],[1,0.5]];portConstraint=eastwest;fontSize=12;whiteSpace=wrap;html=1;" vertex="1" parent="zKYWoEEWCpVcTfYXWsxU-1">
          <mxGeometry x="40" y="379" width="180" height="30" as="geometry" />
        </mxCell>
        <mxCell id="zKYWoEEWCpVcTfYXWsxU-29" value="" style="endArrow=none;dashed=1;html=1;rounded=0;fontSize=12;startSize=8;endSize=8;curved=1;" edge="1" parent="zKYWoEEWCpVcTfYXWsxU-1">
          <mxGeometry width="50" height="50" relative="1" as="geometry">
            <mxPoint x="-48" y="381" as="sourcePoint" />
            <mxPoint x="670" y="381" as="targetPoint" />
            <Array as="points" />
          </mxGeometry>
        </mxCell>
        <mxCell id="zKYWoEEWCpVcTfYXWsxU-30" value="showError()" style="html=1;verticalAlign=bottom;endArrow=block;curved=0;rounded=0;fontSize=12;startSize=8;endSize=8;exitX=0.5;exitY=0.946;exitDx=0;exitDy=0;exitPerimeter=0;" edge="1" parent="zKYWoEEWCpVcTfYXWsxU-1">
          <mxGeometry x="-0.0067" width="80" relative="1" as="geometry">
            <mxPoint x="450" y="415" as="sourcePoint" />
            <mxPoint x="240" y="415.24" as="targetPoint" />
            <mxPoint as="offset" />
          </mxGeometry>
        </mxCell>
        <mxCell id="zKYWoEEWCpVcTfYXWsxU-31" value="highlightInvalidFields()" style="html=1;verticalAlign=bottom;endArrow=open;dashed=1;endSize=8;curved=0;rounded=0;fontSize=12;" edge="1" parent="zKYWoEEWCpVcTfYXWsxU-1">
          <mxGeometry relative="1" as="geometry">
            <mxPoint x="230" y="470" as="sourcePoint" />
            <mxPoint x="35" y="470" as="targetPoint" />
          </mxGeometry>
        </mxCell>
        <mxCell id="zKYWoEEWCpVcTfYXWsxU-32" value="requestReEntry()" style="html=1;verticalAlign=bottom;endArrow=block;curved=0;rounded=0;fontSize=12;startSize=8;endSize=8;" edge="1" parent="zKYWoEEWCpVcTfYXWsxU-1">
          <mxGeometry x="-0.0067" width="80" relative="1" as="geometry">
            <mxPoint x="230.5" y="439" as="sourcePoint" />
            <mxPoint x="35.5" y="439" as="targetPoint" />
            <mxPoint as="offset" />
          </mxGeometry>
        </mxCell>
        <mxCell id="zKYWoEEWCpVcTfYXWsxU-33" value="notify success outcome" style="html=1;verticalAlign=bottom;endArrow=open;dashed=1;endSize=8;curved=0;rounded=0;fontSize=12;" edge="1" parent="zKYWoEEWCpVcTfYXWsxU-1">
          <mxGeometry relative="1" as="geometry">
            <mxPoint x="229" y="370" as="sourcePoint" />
            <mxPoint x="34" y="370" as="targetPoint" />
          </mxGeometry>
        </mxCell>
      </root>
    </mxGraphModel>
  </diagram>
</mxfile>
